<svg width="482" height="172" viewBox="0 0 482 172" fill="none" xmlns="http://www.w3.org/2000/svg">
<g clip-path="url(#clip0_2001_2)">
<path d="M86.2866 0.0618902C85.2481 0.265304 84.3119 0.821746 83.6372 1.63669L53.0609 36.7105H20.6229C20.4797 36.7038 20.3364 36.7038 20.1932 36.7105C19.4223 36.7856 18.683 37.0549 18.0444 37.493C17.4058 37.9311 16.8886 38.5239 16.5413 39.2159L0.50125 71.2833C0.172931 71.9261 0.00118333 72.6375 0 73.3592V160.4C0.000135247 161.615 0.483017 162.78 1.34244 163.639C2.20187 164.498 3.36745 164.981 4.58286 164.981H123.737C124.953 164.981 126.118 164.498 126.978 163.639C127.837 162.78 128.32 161.615 128.32 160.4V73.3592C128.319 72.6375 128.147 71.9261 127.819 71.2833L111.779 39.2159C111.396 38.4627 110.812 37.8299 110.091 37.3878C109.371 36.9457 108.542 36.7112 107.697 36.7105H106.193L113.497 28.1926C114.269 27.2836 114.656 26.1097 114.576 24.9202C114.495 23.7307 113.954 22.6193 113.068 21.8221L90.1534 1.20718C89.6389 0.734174 89.023 0.385148 88.3528 0.186643C87.6826 -0.0118612 86.9758 -0.0545994 86.2866 0.0618902ZM87.5039 11.1568L103.616 25.6157L80.3432 52.7443H51.2707L87.5039 11.1568ZM23.4871 45.8727H45.1125L39.0975 52.7443H32.08C31.9369 52.7376 31.7935 52.7376 31.6504 52.7443C31.0485 52.7725 30.4581 52.919 29.9129 53.1752C29.3677 53.4315 28.8783 53.7925 28.4727 54.2379C28.0671 54.6832 27.7532 55.2041 27.549 55.7707C27.3447 56.3373 27.2541 56.9386 27.2823 57.5402C27.3105 58.1418 27.457 58.7319 27.7134 59.2769C27.9697 59.822 28.331 60.311 28.7765 60.7165C29.222 61.1219 29.7431 61.4358 30.3099 61.64C30.8767 61.8441 31.4782 61.9347 32.08 61.9065H96.24C96.8473 61.9151 97.4501 61.8029 98.0137 61.5765C98.5772 61.3501 99.09 61.0139 99.5225 60.5877C99.9549 60.1614 100.298 59.6536 100.533 59.0936C100.767 58.5335 100.888 57.9324 100.888 57.3254C100.888 56.7183 100.767 56.1173 100.533 55.5573C100.298 54.9972 99.9549 54.4893 99.5225 54.063C99.09 53.6368 98.5772 53.3008 98.0137 53.0744C97.4501 52.848 96.8473 52.7358 96.24 52.7443H92.4448L98.3166 45.8727H104.833L116.29 68.778H12.03L23.4871 45.8727ZM9.16572 77.9401H119.154V155.818H9.16572V77.9401Z" fill="#006251"/>
<path d="M160.4 13.2041H187.319V147.799H160.4V13.2041ZM198.458 13.2041H224.077L237.815 67.2277V13.2041H265.477V147.799H237.815L223.335 91.5476V147.799H198.458V13.2041ZM276.616 13.2041H328.969L333.61 38.2666H304.277V70.1981H326.555V93.4041H304.277V122.737H332.496L327.855 147.799H276.616V13.2041ZM363.87 147.799C356.073 147.799 350.627 146.19 347.533 142.972C344.44 139.754 342.892 134.432 342.892 127.006V29.7268C342.892 24.4048 344.408 20.321 347.441 17.474C350.473 14.6271 354.217 13.2041 358.672 13.2041H394.131L398.772 38.2666H372.967C371.358 38.2666 370.554 39.133 370.554 40.8657V120.137C370.554 121.87 371.358 122.737 372.967 122.737H398.772L393.945 147.799H363.87ZM435.531 70.9407H439.615L453.353 13.2041H481.2L465.049 75.2106L481.014 147.799H451.496L440.914 92.2903H435.531V147.799H408.055V13.2041H435.531V70.9407Z" fill="#006251"/>
<path d="M200.824 171.204H197.626L192.48 161.031H195.545L199.247 168.687L202.942 161.031H206.007L200.824 171.204ZM231.999 166.125C231.999 166.999 231.838 167.77 231.517 168.439C231.197 169.108 230.738 169.667 230.14 170.116C229.543 170.565 228.819 170.904 227.967 171.134C227.116 171.363 226.159 171.478 225.098 171.478C224.037 171.478 223.078 171.363 222.222 171.134C221.366 170.904 220.636 170.565 220.034 170.116C219.432 169.667 218.968 169.108 218.642 168.439C218.316 167.77 218.153 166.999 218.153 166.125C218.153 165.251 218.316 164.48 218.642 163.811C218.968 163.143 219.432 162.584 220.034 162.134C220.636 161.685 221.366 161.346 222.222 161.116C223.078 160.887 224.037 160.772 225.098 160.772C226.159 160.772 227.116 160.887 227.967 161.116C228.819 161.346 229.543 161.685 230.14 162.134C230.738 162.584 231.197 163.143 231.517 163.811C231.838 164.48 231.999 165.251 231.999 166.125ZM229.222 166.125C229.222 165.745 229.162 165.366 229.041 164.989C228.92 164.611 228.705 164.272 228.397 163.971C228.088 163.67 227.667 163.425 227.134 163.238C226.601 163.05 225.923 162.956 225.098 162.956C224.546 162.956 224.059 162.999 223.64 163.086C223.22 163.172 222.857 163.292 222.552 163.445C222.246 163.598 221.989 163.777 221.782 163.982C221.574 164.187 221.409 164.406 221.285 164.641C221.162 164.875 221.074 165.119 221.023 165.374C220.971 165.628 220.945 165.878 220.945 166.125C220.945 166.377 220.971 166.631 221.023 166.888C221.074 167.145 221.162 167.39 221.285 167.625C221.409 167.859 221.574 168.077 221.782 168.28C221.989 168.482 222.245 168.659 222.552 168.809C222.858 168.96 223.22 169.078 223.64 169.165C224.059 169.251 224.546 169.294 225.098 169.294C225.923 169.294 226.601 169.2 227.134 169.013C227.667 168.825 228.088 168.581 228.397 168.28C228.705 167.979 228.92 167.639 229.041 167.262C229.162 166.884 229.222 166.505 229.222 166.125ZM251.364 163.245V171.204H248.617V163.245H244.301V161.031H255.688V163.245H251.364ZM268.812 171.204V161.031H279.111V163.201H271.633V164.881H278.726V167.051H271.633V169.035H279.214V171.204L268.812 171.204ZM321.396 170.508C321.041 170.656 320.683 170.79 320.322 170.908C319.962 171.026 319.589 171.129 319.204 171.215C318.819 171.302 318.413 171.367 317.987 171.411C317.56 171.456 317.102 171.478 316.613 171.478C315.577 171.478 314.623 171.367 313.752 171.145C312.88 170.923 312.13 170.588 311.501 170.142C310.871 169.695 310.382 169.137 310.031 168.468C309.681 167.8 309.505 167.019 309.505 166.125C309.505 165.232 309.681 164.451 310.031 163.782C310.382 163.113 310.871 162.555 311.501 162.109C312.13 161.662 312.88 161.327 313.752 161.105C314.623 160.883 315.577 160.772 316.613 160.772C317.102 160.772 317.56 160.794 317.987 160.839C318.414 160.883 318.819 160.949 319.204 161.035C319.589 161.121 319.962 161.224 320.322 161.342C320.683 161.461 321.041 161.594 321.396 161.742V164.215C321.115 164.062 320.819 163.91 320.508 163.76C320.197 163.609 319.854 163.473 319.478 163.352C319.103 163.232 318.691 163.133 318.242 163.056C317.793 162.98 317.287 162.942 316.724 162.942C315.86 162.942 315.143 163.03 314.573 163.208C314.003 163.386 313.548 163.623 313.207 163.919C312.867 164.215 312.627 164.554 312.489 164.937C312.351 165.319 312.282 165.716 312.282 166.125C312.282 166.397 312.311 166.665 312.371 166.929C312.43 167.193 312.529 167.442 312.667 167.676C312.805 167.911 312.985 168.127 313.207 168.324C313.429 168.522 313.706 168.692 314.037 168.835C314.367 168.978 314.753 169.091 315.195 169.172C315.637 169.253 316.147 169.294 316.724 169.294C317.287 169.294 317.793 169.258 318.242 169.187C318.691 169.115 319.103 169.02 319.478 168.902C319.854 168.783 320.197 168.649 320.508 168.498C320.818 168.348 321.115 168.193 321.396 168.035V170.508ZM348.432 166.125C348.432 166.999 348.271 167.77 347.951 168.439C347.63 169.108 347.171 169.667 346.574 170.116C345.976 170.565 345.252 170.904 344.4 171.134C343.549 171.363 342.593 171.478 341.531 171.478C340.47 171.478 339.511 171.363 338.655 171.134C337.799 170.904 337.069 170.565 336.467 170.116C335.865 169.667 335.401 169.108 335.075 168.439C334.75 167.77 334.587 166.999 334.587 166.125C334.587 165.251 334.75 164.48 335.075 163.811C335.401 163.143 335.865 162.584 336.467 162.134C337.069 161.685 337.799 161.346 338.655 161.116C339.511 160.887 340.47 160.772 341.531 160.772C342.593 160.772 343.549 160.887 344.4 161.116C345.252 161.346 345.976 161.685 346.574 162.134C347.171 162.584 347.63 163.143 347.951 163.811C348.271 164.48 348.432 165.251 348.432 166.125ZM345.656 166.125C345.656 165.745 345.595 165.366 345.474 164.989C345.353 164.611 345.138 164.272 344.83 163.971C344.521 163.67 344.101 163.425 343.568 163.238C343.035 163.05 342.356 162.956 341.532 162.956C340.979 162.956 340.493 162.999 340.073 163.086C339.654 163.172 339.291 163.292 338.985 163.445C338.679 163.598 338.422 163.777 338.215 163.982C338.007 164.187 337.842 164.406 337.719 164.641C337.595 164.875 337.508 165.119 337.456 165.374C337.404 165.628 337.378 165.878 337.378 166.125C337.378 166.377 337.404 166.631 337.456 166.888C337.508 167.145 337.595 167.39 337.719 167.625C337.842 167.859 338.007 168.077 338.215 168.28C338.422 168.482 338.679 168.659 338.985 168.809C339.291 168.96 339.654 169.078 340.073 169.165C340.493 169.251 340.979 169.294 341.532 169.294C342.356 169.294 343.035 169.2 343.568 169.013C344.101 168.825 344.521 168.581 344.83 168.28C345.138 167.979 345.353 167.639 345.474 167.262C345.595 166.884 345.656 166.505 345.656 166.125ZM374.253 167.776C374.253 168.285 374.127 168.763 373.876 169.213C373.624 169.662 373.246 170.054 372.743 170.39C372.239 170.725 371.611 170.991 370.859 171.186C370.106 171.381 369.226 171.478 368.219 171.478C367.212 171.478 366.33 171.381 365.572 171.186C364.815 170.991 364.184 170.725 363.681 170.39C363.177 170.054 362.799 169.662 362.548 169.213C362.296 168.763 362.17 168.285 362.17 167.776V161.031H364.91V166.792C364.91 167.132 364.953 167.454 365.039 167.758C365.126 168.061 365.288 168.327 365.528 168.554C365.767 168.781 366.103 168.961 366.535 169.094C366.967 169.227 367.528 169.294 368.219 169.294C368.905 169.294 369.463 169.227 369.892 169.094C370.322 168.961 370.656 168.781 370.896 168.554C371.135 168.327 371.297 168.061 371.381 167.758C371.464 167.454 371.506 167.132 371.506 166.792V161.031H374.253L374.253 167.776ZM398.283 171.204L391.42 164.215V171.204H388.673V161.031H391.657L398.528 168.05V161.031H401.26V171.204H398.283ZM421.455 163.245V171.204H418.708V163.245H414.391V161.031H425.779V163.245H421.455ZM448.276 163.897C448.084 163.803 447.829 163.697 447.513 163.578C447.197 163.46 446.84 163.347 446.44 163.241C446.04 163.135 445.606 163.046 445.137 162.975C444.668 162.903 444.187 162.867 443.693 162.867C443.298 162.867 442.961 162.88 442.682 162.904C442.403 162.929 442.169 162.961 441.979 163.001C441.789 163.04 441.638 163.086 441.527 163.138C441.416 163.189 441.331 163.243 441.272 163.297C441.213 163.351 441.174 163.405 441.157 163.46C441.14 163.514 441.131 163.563 441.131 163.608C441.131 163.756 441.205 163.885 441.353 163.996C441.501 164.108 441.704 164.206 441.96 164.293C442.217 164.379 442.516 164.46 442.856 164.537C443.197 164.613 443.558 164.692 443.941 164.774C444.324 164.855 444.718 164.944 445.126 165.04C445.533 165.137 445.928 165.249 446.31 165.377C446.693 165.506 447.054 165.655 447.395 165.825C447.736 165.996 448.034 166.194 448.291 166.421C448.547 166.648 448.75 166.91 448.898 167.206C449.046 167.502 449.12 167.84 449.12 168.22C449.12 168.709 449.034 169.129 448.861 169.479C448.688 169.83 448.457 170.126 448.169 170.368C447.88 170.609 447.545 170.803 447.165 170.949C446.785 171.094 446.387 171.207 445.97 171.286C445.553 171.365 445.131 171.416 444.704 171.441C444.277 171.466 443.871 171.478 443.486 171.478C442.479 171.478 441.547 171.396 440.691 171.23C439.834 171.065 439.078 170.859 438.421 170.612V168.183C439.098 168.559 439.869 168.852 440.735 169.065C441.602 169.277 442.528 169.383 443.515 169.383C444.098 169.383 444.573 169.352 444.941 169.29C445.308 169.229 445.596 169.15 445.803 169.053C446.011 168.957 446.151 168.852 446.225 168.739C446.299 168.625 446.336 168.517 446.336 168.413C446.336 168.25 446.262 168.108 446.114 167.987C445.966 167.866 445.764 167.76 445.507 167.669C445.25 167.578 444.952 167.494 444.611 167.417C444.271 167.341 443.909 167.264 443.527 167.188C443.144 167.111 442.75 167.029 442.346 166.94C441.941 166.851 441.547 166.746 441.165 166.625C440.782 166.504 440.421 166.363 440.08 166.203C439.739 166.043 439.441 165.853 439.184 165.633C438.928 165.413 438.725 165.159 438.577 164.87C438.429 164.581 438.355 164.247 438.355 163.867C438.355 163.418 438.434 163.03 438.592 162.705C438.75 162.379 438.963 162.101 439.232 161.872C439.501 161.642 439.812 161.456 440.165 161.313C440.518 161.17 440.89 161.059 441.279 160.98C441.669 160.901 442.064 160.846 442.464 160.817C442.864 160.787 443.244 160.772 443.604 160.772C443.999 160.772 444.405 160.792 444.822 160.831C445.239 160.871 445.65 160.927 446.055 160.998C446.46 161.07 446.851 161.152 447.229 161.246C447.606 161.34 447.955 161.439 448.276 161.542L448.276 163.897Z" fill="#006251"/>
</g>
<defs>
<clipPath id="clip0_2001_2">
<rect width="481.2" height="171.773" fill="white"/>
</clipPath>
</defs>
</svg>
