<svg width="110" height="37" viewBox="0 0 110 37" fill="none" xmlns="http://www.w3.org/2000/svg">
<path d="M58.1849 21.0802H50.5276V29.4976H46.9242V8.91864H59.6488V12.2405H50.5276V17.8427H58.1849V21.0802ZM70.9688 15.5906H74.4033V29.4976H71.2222L70.9688 27.6395C70.1243 28.9627 68.3226 29.8635 66.4646 29.8635C63.2553 29.8635 61.3691 27.6958 61.3691 24.2895V15.5906H64.8036V23.079C64.8036 25.7252 65.8452 26.795 67.7595 26.795C69.9272 26.795 70.9688 25.5282 70.9688 22.8819V15.5906ZM81.3852 29.4976H77.9507V15.5906H81.1318L81.4133 17.3923C82.2861 15.9847 83.9752 15.1683 85.8613 15.1683C89.3521 15.1683 91.1539 17.336 91.1539 20.9394V29.4976H87.7193V21.7558C87.7193 19.4192 86.5651 18.2932 84.7916 18.2932C82.6802 18.2932 81.3852 19.7571 81.3852 22.0092V29.4976ZM108.435 29.4976H93.6275V26.1475L103.79 12.2405H93.8527V8.91864H108.266V12.1279L98.0191 26.1757H108.435V29.4976Z" fill="#000574"/>
<path d="M0.115234 15.3076C0.115234 6.85345 6.96869 0 15.4229 0V18.2266V21.1456C15.4229 29.5997 8.5694 36.4532 0.115234 36.4532V15.3076Z" fill="#000574"/>
<path d="M17.6438 8.31803C17.6438 3.72411 21.3679 0 25.9618 0C30.5557 0 34.2798 3.72411 34.2798 8.31803V8.79828C34.2798 13.3922 30.5557 17.1163 25.9618 17.1163C21.3679 17.1163 17.6438 13.3922 17.6438 8.79829V8.31803Z" fill="#0158D9"/>
<path d="M17.6438 27.655C17.6438 23.061 21.3679 19.3369 25.9618 19.3369C30.5558 19.3369 34.2799 23.061 34.2799 27.6549V28.1352C34.2799 32.7291 30.5558 36.4532 25.9618 36.4532C21.3679 36.4532 17.6438 32.7291 17.6438 28.1352V27.655Z" fill="#4CBB17"/>
</svg>
